<svg width="200" height="200" viewBox="0 0 200 200" fill="none" xmlns="http://www.w3.org/2000/svg">
<path d="M100 200C155.228 200 200 155.228 200 100C200 44.7715 155.228 0 100 0C44.7715 0 0 44.7715 0 100C0 155.228 44.7715 200 100 200Z" fill="#D4EDDA"/>
<path d="M40 140C40 130 50 120 60 120C70 120 80 130 80 140C80 150 70 160 60 160C50 160 40 150 40 140Z" fill="#4CAF50"/>
<path d="M140 140C140 130 150 120 160 120C170 120 180 130 180 140C180 150 170 160 160 160C150 160 140 150 140 140Z" fill="#4CAF50"/>
<path d="M60 120L160 120L160 100L140 80L80 80L60 100L60 120Z" fill="#388E3C"/>
<path d="M80 80L140 80L140 60L120 40L100 40L80 60L80 80Z" fill="#1B5E20"/>
<path d="M100 60H120V80H100V60Z" fill="#FFFFFF"/>
</svg>
